<svg version="1.0" xmlns="http://www.w3.org/2000/svg"
 width="200px" height="200px" viewBox="0 0 3264.000000 3264.000000"
 preserveAspectRatio="xMidYMid meet">
<metadata>
Created by Dhananjoy Nath, phpdjbhai@gmail.com
</metadata>

<g transform="translate(0.000000,3264.000000) scale(0.100000,-0.100000)"
fill="#000000" stroke="none">


<path d="M15750 29710 c0 -5 -11 -10 -24 -10 -38 0 -140 -105 -157 -160 -11
-36 -14 -238 -16 -1022 l-3 -977 26 -55 c34 -71 100 -141 159 -166 64 -27 255
-29 312 -3 52 24 153 128 153 158 0 12 7 25 15 29 13 5 15 125 15 1001 0 876
-2 996 -15 1001 -10 4 -15 20 -15 46 0 38 -17 68 -39 68 -6 0 -11 7 -11 15 0
8 -7 15 -15 15 -8 0 -15 7 -15 15 0 8 -7 15 -15 15 -8 0 -15 5 -15 10 0 6 -11
10 -25 10 -14 0 -25 5 -25 10 0 6 -55 10 -145 10 -90 0 -145 -4 -145 -10z"/>
<path d="M9085 27940 c-3 -5 -22 -10 -41 -10 -22 0 -37 -6 -40 -15 -4 -8 -15
-15 -25 -15 -20 0 -59 -33 -59 -50 0 -5 -5 -10 -10 -10 -19 0 -47 -33 -74 -87
-23 -45 -26 -65 -26 -147 0 -82 3 -101 25 -142 14 -26 25 -53 25 -61 0 -7 7
-16 15 -19 8 -4 15 -15 15 -25 0 -11 7 -22 15 -25 8 -4 15 -17 15 -30 0 -13 5
-24 10 -24 6 0 10 -8 10 -19 0 -10 7 -24 15 -31 8 -7 15 -18 15 -26 0 -7 6
-19 13 -26 6 -7 20 -29 30 -48 39 -77 50 -95 59 -98 4 -2 8 -12 8 -22 0 -10 5
-22 10 -25 6 -3 20 -27 31 -53 12 -26 24 -49 28 -52 9 -7 26 -37 66 -115 33
-64 70 -131 109 -195 8 -14 26 -48 40 -76 15 -29 34 -62 44 -75 10 -13 27 -42
37 -64 24 -48 77 -138 85 -145 3 -3 14 -23 25 -45 10 -22 40 -75 66 -117 26
-42 50 -86 54 -97 3 -12 10 -21 13 -21 4 0 16 -17 27 -37 23 -44 77 -103 94
-103 6 0 11 -4 11 -8 0 -5 24 -19 53 -31 46 -20 64 -23 147 -19 104 6 141 19
200 75 19 18 38 33 43 33 4 0 7 6 7 14 0 8 6 16 14 19 8 3 26 30 40 61 22 46
26 68 26 145 0 54 -4 91 -10 91 -5 0 -10 9 -10 21 0 24 -29 80 -47 92 -7 4
-13 17 -13 28 0 11 -7 22 -15 25 -8 4 -15 17 -15 30 0 13 -4 24 -10 24 -5 0
-10 6 -10 14 0 8 -6 21 -14 28 -7 8 -17 24 -20 36 -4 12 -12 22 -17 22 -5 0
-9 7 -9 15 0 8 -4 15 -10 15 -5 0 -10 11 -10 25 0 14 -7 28 -15 31 -8 4 -15
15 -15 25 0 11 -7 22 -15 25 -8 4 -15 17 -15 30 0 13 -4 24 -9 24 -5 0 -12 8
-15 18 -13 34 -37 72 -47 72 -5 0 -9 11 -9 25 0 14 -4 25 -10 25 -5 0 -10 6
-10 14 0 8 -6 21 -14 28 -7 8 -17 24 -20 36 -4 12 -12 22 -17 22 -5 0 -9 9 -9
19 0 10 -7 21 -15 25 -8 3 -15 15 -15 26 0 11 -4 20 -10 20 -5 0 -10 9 -10 20
0 11 -7 23 -15 26 -8 4 -15 17 -15 30 0 13 -5 24 -11 24 -5 0 -19 20 -30 45
-11 25 -24 45 -29 45 -6 0 -10 11 -10 25 0 16 -6 25 -15 25 -9 0 -15 9 -15 25
0 14 -4 25 -9 25 -5 0 -12 8 -15 18 -13 34 -37 72 -47 72 -5 0 -9 11 -9 25 0
16 -6 25 -15 25 -9 0 -15 9 -15 25 0 14 -4 25 -9 25 -5 0 -12 8 -15 18 -13 34
-37 72 -47 72 -5 0 -9 11 -9 25 0 14 -4 25 -10 25 -5 0 -10 9 -10 20 0 11 -6
23 -14 26 -8 3 -17 16 -20 30 -4 13 -11 24 -16 24 -6 0 -10 7 -10 15 0 8 -4
15 -10 15 -5 0 -10 8 -10 18 0 22 -32 62 -49 62 -6 0 -11 7 -11 15 0 8 -7 15
-15 15 -8 0 -15 4 -15 10 0 5 -11 12 -25 16 -14 3 -25 10 -25 14 0 5 -13 11
-30 15 -16 4 -30 11 -30 16 0 12 -147 12 -155 -1z"/>


<path  id="1_ic" d="M22540 27941 c0 -5 -18 -11 -40 -15 -22 -3 -40 -11 -40 -16 0 -6 -7
-10 -15 -10 -8 0 -15 -5 -15 -10 0 -6 -10 -21 -22 -33 -23 -22 -42 -49 -55
-77 -4 -8 -13 -21 -20 -28 -7 -7 -13 -20 -13 -28 0 -8 -4 -14 -10 -14 -5 0
-10 -9 -10 -19 0 -10 -7 -21 -15 -25 -8 -3 -15 -12 -15 -19 0 -8 -7 -20 -15
-27 -8 -7 -15 -21 -15 -31 0 -11 -4 -19 -10 -19 -5 0 -10 -11 -10 -25 0 -16
-6 -25 -15 -25 -8 0 -15 -9 -15 -20 0 -11 -6 -23 -13 -26 -7 -2 -22 -25 -32
-49 -11 -25 -23 -45 -27 -45 -5 0 -8 -11 -8 -25 0 -16 -6 -25 -15 -25 -9 0
-15 -9 -15 -21 0 -11 -7 -27 -15 -35 -8 -9 -15 -24 -15 -35 0 -10 -4 -19 -10
-19 -5 0 -10 -9 -10 -20 0 -10 -6 -23 -13 -27 -8 -4 -17 -15 -20 -23 -4 -8
-16 -28 -26 -45 -11 -16 -20 -40 -20 -52 -1 -14 -7 -23 -16 -23 -9 0 -15 -9
-15 -24 0 -13 -7 -26 -15 -30 -8 -3 -15 -15 -15 -26 0 -11 -4 -20 -10 -20 -5
0 -10 -13 -10 -30 0 -20 -5 -30 -15 -30 -8 0 -15 -9 -15 -20 0 -11 -7 -23 -15
-26 -8 -4 -15 -10 -15 -15 0 -5 -11 -27 -25 -49 -14 -22 -25 -49 -25 -60 0
-11 -7 -20 -15 -20 -9 0 -15 -9 -15 -25 0 -14 -4 -25 -10 -25 -5 0 -12 -11
-16 -25 -3 -14 -10 -25 -15 -25 -5 0 -9 -13 -9 -30 0 -20 -5 -30 -15 -30 -9 0
-15 -9 -15 -24 0 -13 -7 -26 -15 -30 -8 -3 -15 -15 -15 -26 0 -11 -4 -20 -10
-20 -5 0 -10 -13 -10 -30 0 -20 -5 -30 -15 -30 -9 0 -15 -9 -15 -25 0 -16 -6
-25 -15 -25 -9 0 -15 -9 -15 -25 0 -14 -7 -28 -15 -31 -8 -4 -15 -17 -15 -30
0 -13 -4 -24 -10 -24 -5 0 -10 -13 -10 -29 0 -16 -6 -31 -15 -35 -12 -4 -15
-27 -15 -116 0 -89 3 -112 15 -116 8 -4 15 -15 15 -25 0 -19 23 -62 47 -87 30
-32 105 -82 122 -82 10 0 21 -7 25 -15 4 -12 27 -15 120 -15 89 0 118 3 130
15 8 8 18 15 22 15 15 0 94 93 94 111 0 10 4 19 9 19 5 0 20 20 32 45 12 25
26 45 31 45 4 0 8 11 8 24 0 13 7 26 15 30 8 3 15 14 15 25 0 10 7 21 15 25 8
3 15 12 15 21 0 8 5 15 10 15 6 0 10 11 10 25 0 16 6 25 15 25 9 0 15 9 15 24
0 13 7 26 15 30 8 3 15 15 15 26 0 11 5 20 10 20 6 0 10 9 10 20 0 11 7 20 15
20 8 0 15 9 15 20 0 11 7 23 15 26 8 4 15 16 15 29 0 13 7 25 15 29 8 3 15 15
15 26 0 11 5 20 10 20 6 0 10 9 10 20 0 11 4 20 10 20 5 0 12 11 16 25 3 14
10 25 14 25 4 0 11 11 14 25 4 14 11 25 16 25 6 0 10 11 10 24 0 13 7 26 15
30 8 3 15 14 15 25 0 10 7 21 15 25 8 3 15 12 15 19 0 20 30 77 41 77 5 0 9 8
9 19 0 10 7 24 15 31 8 7 15 18 15 25 0 7 7 18 15 25 8 7 15 21 15 31 0 11 5
19 10 19 6 0 10 11 10 24 0 13 7 26 15 30 8 3 15 14 15 25 0 10 7 21 15 25 8
3 15 14 15 25 0 11 5 23 10 26 6 3 10 14 10 25 0 10 7 20 15 24 8 3 15 14 15
25 0 10 7 21 15 25 8 3 15 15 15 26 0 11 5 20 10 20 6 0 10 11 10 24 0 13 7
26 15 30 8 3 15 15 15 26 0 11 7 23 15 26 8 4 15 17 15 30 0 13 5 24 10 24 6
0 10 11 10 24 0 13 7 26 15 30 9 3 15 18 15 34 0 16 7 35 15 42 11 10 15 36
15 112 0 78 -3 100 -15 104 -8 4 -15 17 -15 30 0 14 -7 27 -15 30 -8 4 -15 14
-15 24 0 10 -11 27 -25 38 -14 11 -25 25 -25 31 0 6 -7 11 -15 11 -8 0 -15 4
-15 9 0 5 -10 13 -22 17 -12 3 -28 13 -36 20 -7 8 -22 14 -32 14 -10 0 -22 5
-25 10 -8 12 -175 13 -175 1z"/>



<path d="M16580 26430 c0 -5 -24 -10 -54 -10 -35 0 -60 -5 -70 -15 -8 -8 -32
-15 -55 -15 -22 0 -46 -7 -55 -15 -8 -8 -26 -15 -39 -15 -29 0 -66 -18 -93
-45 -15 -14 -20 -37 -23 -102 -1 -46 0 -99 3 -118 7 -34 9 -35 51 -35 40 0
105 25 113 43 2 4 16 7 32 7 16 0 35 7 44 15 8 8 26 15 40 15 13 0 31 7 40 15
8 9 33 15 60 15 25 0 48 5 51 10 3 6 37 10 75 10 38 0 72 -4 75 -10 3 -5 21
-10 40 -10 20 0 35 -6 39 -15 3 -8 12 -15 19 -15 18 0 87 -69 87 -87 0 -7 4
-13 8 -13 28 0 42 -155 19 -206 -19 -45 -68 -124 -76 -124 -4 0 -17 -17 -29
-37 -11 -21 -49 -67 -82 -103 -34 -36 -67 -72 -74 -81 -42 -59 -100 -123 -145
-159 -17 -14 -31 -30 -31 -37 0 -7 -6 -13 -12 -13 -7 0 -24 -14 -38 -32 -31
-39 -92 -98 -102 -98 -5 0 -8 -4 -8 -10 0 -5 -17 -27 -37 -48 -21 -21 -50 -53
-64 -72 -15 -19 -40 -50 -57 -68 -34 -38 -42 -68 -42 -164 0 -120 -59 -108
553 -108 414 0 537 3 550 13 15 11 17 27 15 122 l-3 110 -369 5 -368 5 71 72
c39 39 71 76 71 82 0 6 4 11 10 11 9 0 100 86 100 94 0 7 73 87 158 172 45 45
82 85 82 88 0 3 15 21 33 40 44 48 77 92 77 105 0 6 7 11 15 11 8 0 15 9 15
20 0 11 7 23 15 26 8 4 15 17 15 30 0 13 5 24 10 24 6 0 10 13 10 29 0 16 6
31 15 35 12 4 15 32 15 161 0 131 -2 155 -15 155 -10 0 -15 11 -15 35 0 19 -4
35 -10 35 -5 0 -10 9 -10 20 0 11 -7 20 -15 20 -8 0 -15 7 -15 15 0 8 -18 33
-40 55 -22 22 -47 40 -55 40 -8 0 -15 7 -15 15 0 8 -7 15 -15 15 -8 0 -15 5
-15 10 0 6 -11 10 -24 10 -13 0 -26 7 -30 15 -3 9 -18 15 -36 15 -17 0 -38 7
-46 15 -10 10 -35 15 -75 15 -33 0 -59 4 -59 10 0 6 -42 10 -105 10 -63 0
-105 -4 -105 -10z"/>
<path d="M15074 26375 c-5 -11 -22 -15 -69 -15 -35 0 -67 -4 -70 -10 -3 -5
-26 -10 -49 -10 -24 0 -48 -6 -54 -12 -9 -12 -23 -100 -24 -158 0 -14 5 -44
11 -67 10 -38 15 -43 42 -43 16 0 37 4 47 10 9 5 43 12 74 15 32 4 60 11 63
16 4 5 30 9 60 9 34 0 59 5 69 15 8 8 22 15 30 15 14 0 16 -62 16 -605 l0
-605 -185 0 -185 0 0 -114 c0 -84 4 -117 14 -125 9 -8 148 -10 497 -9 l484 3
3 123 3 122 -191 0 -190 0 0 730 0 730 -195 0 c-165 0 -197 -2 -201 -15z"/>
<path d="M20235 26081 c-93 -66 -171 -124 -173 -130 -4 -11 115 -161 128 -161
5 0 50 32 102 70 l93 70 3 -590 2 -590 105 0 105 0 0 725 0 725 -97 -1 -98 0
-170 -118z"/>


<path d="M10215 25150 c-93 -66 -171 -124 -173 -129 -3 -10 112 -152 128 -159
4 -1 49 29 101 67 l94 70 3 -589 2 -590 105 0 105 0 0 725 0 725 -97 -1 -98 0
-170 -119z"/>


<path d="M11230 25237 c-25 -19 -103 -73 -175 -122 -71 -48 -131 -91 -133 -95
-1 -4 12 -23 31 -42 18 -19 49 -54 68 -77 l35 -43 95 71 c51 39 97 71 102 71
4 0 7 -265 7 -590 l0 -590 105 0 105 0 0 725 0 725 -97 0 c-95 0 -99 -2 -143
-33z"/>


<path d="M27530 23005 c0 -11 -11 -15 -40 -15 -22 0 -40 -4 -40 -9 0 -5 -11
-12 -25 -15 -14 -4 -25 -11 -25 -16 0 -6 -7 -10 -15 -10 -9 0 -18 -7 -21 -15
-4 -8 -17 -15 -30 -15 -15 0 -24 -6 -24 -15 0 -9 -9 -15 -25 -15 -14 0 -25 -4
-25 -10 0 -5 -7 -10 -16 -10 -9 0 -33 -13 -54 -30 -21 -16 -45 -30 -54 -30 -9
0 -16 -4 -16 -10 0 -5 -9 -10 -20 -10 -11 0 -23 -6 -26 -14 -3 -8 -16 -17 -30
-20 -13 -4 -24 -11 -24 -16 0 -6 -7 -10 -15 -10 -8 0 -15 -4 -15 -10 0 -5 -9
-10 -19 -10 -11 0 -26 -6 -33 -14 -8 -7 -24 -17 -36 -20 -12 -4 -22 -12 -22
-17 0 -5 -7 -9 -15 -9 -8 0 -15 -4 -15 -10 0 -5 -9 -10 -20 -10 -11 0 -23 -7
-26 -15 -4 -8 -14 -15 -25 -15 -10 0 -22 -6 -26 -13 -4 -8 -15 -17 -23 -20 -8
-4 -28 -16 -45 -26 -16 -11 -38 -20 -48 -20 -10 -1 -20 -7 -23 -15 -3 -8 -16
-17 -30 -20 -13 -4 -24 -11 -24 -16 0 -6 -7 -10 -15 -10 -8 0 -15 -4 -15 -9 0
-5 -11 -12 -25 -15 -14 -4 -25 -11 -25 -16 0 -6 -6 -10 -14 -10 -8 0 -21 -6
-28 -13 -7 -7 -32 -22 -55 -32 -24 -10 -43 -22 -43 -26 0 -4 -11 -10 -25 -13
-14 -4 -25 -11 -25 -16 0 -6 -7 -10 -15 -10 -8 0 -15 -7 -15 -15 0 -9 -9 -15
-25 -15 -14 0 -25 -4 -25 -9 0 -5 -10 -11 -23 -15 -13 -3 -36 -17 -51 -31 -15
-14 -36 -25 -47 -25 -10 0 -19 -3 -19 -8 0 -7 -30 -25 -62 -38 -10 -3 -18 -13
-18 -20 0 -8 -10 -14 -25 -14 -14 0 -25 -4 -25 -9 0 -5 -20 -19 -45 -31 -25
-12 -45 -26 -45 -31 0 -5 -8 -9 -17 -9 -22 -1 -113 -92 -113 -113 0 -8 -7 -17
-15 -21 -12 -4 -15 -31 -15 -150 0 -119 3 -145 15 -150 8 -3 15 -15 15 -26 0
-11 7 -23 15 -26 8 -4 15 -13 15 -21 0 -16 49 -62 66 -63 7 0 14 -7 18 -15 3
-8 14 -15 24 -15 10 0 23 -5 29 -11 6 -6 49 -14 95 -18 47 -4 90 -11 97 -15
14 -9 63 13 147 66 34 21 66 38 73 38 6 0 11 4 11 9 0 5 11 12 25 15 14 4 25
11 25 16 0 6 6 10 14 10 8 0 16 7 20 15 3 8 12 15 21 15 8 0 33 11 55 25 22
14 44 25 49 25 5 0 11 7 15 15 3 8 15 15 26 15 11 0 20 5 20 10 0 6 6 10 14
10 8 0 21 6 28 13 17 14 47 35 68 44 8 4 42 24 76 45 34 21 66 38 73 38 6 0
11 4 11 9 0 5 10 13 23 17 12 4 24 9 27 13 7 9 41 30 68 41 12 5 22 14 22 20
0 5 7 10 17 10 9 0 31 11 49 25 18 14 40 25 48 25 9 0 16 7 16 15 0 8 7 15 16
15 8 0 32 11 52 25 20 14 42 25 49 25 7 0 13 6 13 14 0 7 12 16 28 19 15 3 37
15 49 26 12 12 29 21 38 21 9 0 18 6 21 14 3 7 23 22 44 32 22 11 40 22 40 25
0 4 11 10 25 13 14 4 25 11 25 16 0 6 6 10 14 10 8 0 16 7 20 15 3 8 15 15 26
15 11 0 20 4 20 9 0 5 8 11 18 15 20 7 53 27 67 42 5 6 34 25 63 43 28 18 52
37 52 42 0 5 7 9 15 9 8 0 27 19 42 43 15 23 32 45 38 49 14 10 13 277 -1 286
-6 4 -14 17 -18 29 -11 33 -108 131 -139 138 -15 4 -27 11 -27 16 0 5 -18 9
-39 9 -25 0 -41 5 -45 15 -4 10 -20 15 -51 15 -33 0 -45 -4 -45 -15z"/>


<path  id="10_ic" d="M4041 22964 c-42 -23 -81 -56 -81 -69 0 -3 -11 -16 -24 -28 -24 -23
-66 -105 -66 -131 0 -8 -4 -18 -10 -21 -12 -8 -13 -128 -1 -153 4 -9 16 -35
27 -57 22 -47 96 -122 150 -150 21 -11 64 -37 95 -57 31 -21 63 -38 72 -38 8
0 20 -7 27 -15 7 -8 17 -15 22 -15 5 0 24 -11 42 -25 18 -14 40 -25 48 -25 9
0 18 -7 22 -15 3 -8 17 -15 31 -15 14 0 25 -4 25 -9 0 -9 13 -16 130 -77 30
-16 57 -31 60 -34 11 -11 73 -40 86 -40 8 0 14 -4 14 -9 0 -5 30 -24 68 -43
37 -18 69 -35 72 -39 3 -3 25 -16 50 -29 25 -13 72 -38 105 -56 33 -18 92 -49
130 -69 39 -20 97 -52 130 -70 33 -18 67 -34 76 -34 9 -1 19 -8 23 -16 3 -8
14 -15 25 -15 11 0 23 -4 26 -10 5 -8 32 -22 85 -44 8 -3 29 -15 45 -26 17
-11 37 -23 45 -26 8 -3 37 -17 63 -30 27 -13 56 -24 65 -24 10 0 26 -7 36 -15
25 -19 63 -19 100 0 15 8 36 15 46 15 21 0 80 31 80 43 0 4 7 7 15 7 8 0 15 4
15 9 0 5 18 28 40 51 22 23 40 51 40 62 0 12 6 26 14 32 15 11 20 73 17 219
-1 52 -4 67 -16 67 -8 0 -15 7 -15 16 0 22 -41 64 -62 64 -10 0 -18 7 -18 15
0 8 -7 15 -15 15 -8 0 -15 4 -15 10 0 5 -11 12 -25 16 -14 3 -25 10 -25 15 0
5 -11 9 -25 9 -16 0 -25 6 -25 15 0 8 -5 15 -10 15 -6 0 -28 11 -50 25 -22 14
-49 25 -60 25 -11 0 -20 7 -20 15 0 8 -9 15 -20 15 -11 0 -23 7 -26 15 -4 8
-12 15 -20 15 -8 0 -14 5 -14 10 0 6 -11 10 -24 10 -13 0 -26 7 -30 15 -3 8
-17 15 -31 15 -14 0 -25 6 -25 13 0 12 -24 28 -62 43 -10 3 -18 10 -18 15 0 5
-11 9 -25 9 -16 0 -25 6 -25 15 0 9 -9 15 -25 15 -14 0 -25 4 -25 9 0 11 -56
41 -77 41 -7 0 -13 7 -13 15 0 9 -9 15 -24 15 -13 0 -26 7 -30 15 -3 8 -13 15
-23 16 -10 0 -31 9 -48 20 -16 10 -37 22 -45 26 -8 4 -21 13 -28 20 -7 7 -20
13 -28 13 -8 0 -14 4 -14 10 0 5 -11 12 -25 16 -14 3 -25 10 -25 15 0 5 -13 9
-30 9 -20 0 -30 5 -30 15 0 8 -7 15 -15 15 -8 0 -15 4 -15 10 0 5 -11 12 -25
16 -14 3 -25 10 -25 15 0 5 -11 9 -24 9 -13 0 -26 7 -30 15 -3 8 -15 15 -26
15 -11 0 -23 7 -26 15 -4 8 -17 15 -30 15 -13 0 -24 5 -24 10 0 6 -9 10 -20
10 -11 0 -23 7 -26 15 -4 8 -14 15 -24 15 -10 0 -23 7 -30 15 -7 8 -19 15 -26
15 -8 0 -14 5 -14 10 0 6 -11 10 -24 10 -13 0 -26 7 -30 15 -3 8 -14 15 -25
15 -10 0 -21 7 -25 15 -3 8 -15 15 -26 15 -12 0 -28 7 -36 15 -9 8 -29 15 -45
15 -16 0 -29 5 -29 10 0 6 -44 10 -112 9 -100 0 -118 -3 -157 -25z"/>



<path  d="M8041 22094 c-107 -29 -181 -74 -277 -169 -103 -102 -159 -188 -200
-310 -23 -69 -28 -101 -32 -226 -7 -227 28 -378 120 -514 126 -189 297 -275
547 -275 187 0 298 33 416 123 158 119 242 311 252 577 11 272 -52 445 -227
620 -93 94 -180 147 -286 174 -77 20 -239 20 -313 0z m329 -234 c123 -62 237
-210 275 -356 22 -84 20 -243 -5 -338 -51 -199 -187 -329 -374 -358 -242 -37
-444 108 -511 367 -20 79 -20 252 0 329 41 154 147 292 275 356 71 36 89 40
185 37 79 -3 98 -7 155 -37z"/>


<path d="M24470 22084 c-123 -33 -219 -124 -269 -253 -17 -43 -33 -97 -37
-119 -7 -47 -6 -47 126 -58 l85 -6 18 70 c35 135 112 198 242 196 78 0 119
-17 173 -68 48 -44 64 -81 64 -145 1 -93 -49 -194 -157 -320 -25 -29 -162
-175 -305 -324 l-260 -271 0 -83 0 -83 473 2 472 3 3 79 c2 48 -1 83 -8 90 -7
7 -118 13 -326 16 l-315 5 207 215 c233 242 332 363 380 465 71 149 62 314
-24 439 -39 57 -133 122 -209 146 -79 24 -249 27 -333 4z"/>
<path d="M6775 21961 c-93 -66 -171 -124 -173 -129 -3 -11 117 -162 129 -162
4 0 49 32 101 70 l93 70 3 -590 2 -590 105 0 105 0 0 725 0 725 -97 -1 -98 0
-170 -118z"/>



<path  d="M25580 16885 c-8 -9 -29 -15 -55 -15 -45 0 -80 -14 -109 -42 -14 -14
-16 -34 -14 -120 l3 -103 50 2 c77 2 164 18 177 31 18 18 388 17 388 -1 0 -8
18 -20 40 -27 22 -7 40 -17 40 -22 0 -5 6 -16 13 -23 31 -36 37 -46 37 -65 0
-11 7 -23 15 -26 8 -4 15 -18 15 -34 0 -16 -7 -30 -15 -34 -9 -3 -15 -18 -15
-37 0 -25 -10 -42 -45 -75 -25 -24 -51 -44 -59 -44 -8 0 -18 -4 -21 -10 -3 -5
-19 -10 -35 -10 -16 0 -35 -7 -44 -15 -12 -12 -44 -15 -160 -15 l-146 0 0
-125 0 -125 146 0 c116 0 148 -3 160 -15 9 -8 33 -15 55 -15 22 0 52 -8 67
-17 46 -29 112 -102 112 -123 0 -11 7 -20 15 -20 12 0 15 -17 15 -89 0 -70 -3
-90 -15 -95 -8 -3 -15 -12 -15 -21 0 -8 -18 -33 -40 -55 -22 -22 -40 -44 -40
-50 0 -5 -9 -10 -19 -10 -11 0 -23 -4 -26 -10 -3 -5 -17 -10 -31 -10 -14 0
-27 -7 -30 -15 -9 -22 -351 -22 -380 0 -10 8 -40 15 -66 15 -27 0 -48 5 -48
10 0 6 -11 10 -24 10 -13 0 -26 6 -29 14 -6 14 -72 27 -94 18 -10 -3 -13 -39
-13 -133 l0 -129 26 -10 c14 -6 39 -10 55 -10 16 0 29 -4 29 -10 0 -5 24 -10
53 -10 30 -1 60 -7 71 -15 30 -22 484 -22 492 0 4 10 20 15 45 15 21 0 39 5
39 10 0 6 7 10 15 10 22 0 95 39 95 50 0 6 9 10 20 10 20 0 110 81 110 99 0 6
4 11 9 11 13 0 51 77 51 104 0 14 6 26 13 28 9 3 13 46 15 156 3 123 0 158
-12 184 -9 17 -16 39 -16 50 0 10 -4 18 -9 18 -5 0 -13 9 -16 20 -9 29 -99
120 -119 120 -9 0 -16 5 -16 10 0 6 -8 10 -18 10 -21 0 -42 18 -42 37 0 7 9
13 20 13 11 0 23 7 26 15 4 8 11 15 17 15 6 0 35 27 66 59 73 77 95 137 88
241 -6 95 -25 202 -36 209 -4 4 -12 17 -16 31 -8 26 -117 140 -133 140 -5 0
-15 7 -22 15 -7 8 -23 15 -36 15 -12 0 -26 5 -29 10 -3 6 -26 10 -51 10 -30 0
-46 5 -50 15 -5 13 -42 15 -244 15 -199 0 -240 -2 -250 -15z"/>


<path  d="M5678 16843 c-10 -2 -18 -9 -18 -14 0 -5 -18 -9 -39 -9 -25 0 -41 -5
-45 -15 -3 -8 -17 -15 -31 -15 -14 0 -25 -4 -25 -10 0 -5 -6 -10 -14 -10 -22
0 -164 -142 -171 -172 -4 -16 -10 -28 -14 -28 -13 0 -41 -76 -41 -112 0 -20
-7 -41 -15 -48 -22 -18 -22 -277 0 -306 8 -10 15 -33 15 -51 0 -18 5 -45 11
-60 20 -52 54 -113 61 -113 5 0 8 -5 8 -11 0 -14 95 -109 109 -109 6 0 11 -4
11 -8 0 -11 72 -42 99 -42 12 0 24 -7 27 -15 5 -13 36 -15 194 -15 154 0 191
3 204 15 8 8 24 15 35 15 12 0 21 4 21 9 0 5 8 12 18 15 29 11 64 33 73 47 4
8 11 10 16 5 4 -4 0 -12 -10 -17 -12 -7 -17 -23 -17 -59 0 -28 -4 -50 -10 -50
-5 0 -12 -12 -16 -27 -6 -27 -53 -129 -77 -167 -24 -39 -99 -106 -118 -106
-10 0 -19 -4 -19 -9 0 -4 -27 -11 -60 -15 -33 -4 -62 -11 -65 -16 -8 -13 -88
-13 -101 0 -6 6 -43 14 -83 17 -39 3 -74 10 -77 14 -3 5 -22 9 -43 9 -22 0
-44 6 -51 15 -17 21 -37 19 -50 -4 -5 -11 -10 -63 -10 -115 0 -89 2 -97 25
-121 16 -15 37 -25 55 -25 17 0 30 -4 30 -10 0 -6 29 -10 66 -10 45 0 70 -5
80 -15 21 -21 192 -21 220 0 11 8 41 15 71 15 28 0 55 5 58 10 3 6 17 10 29
10 13 0 29 6 35 14 7 8 23 17 36 20 14 4 25 11 25 16 0 6 4 10 10 10 24 0 150
120 150 143 0 9 7 17 15 17 8 0 15 6 15 14 0 8 7 16 15 20 8 3 15 15 15 26 0
11 4 20 9 20 13 0 41 58 41 85 0 13 7 25 15 29 8 3 15 16 15 28 0 13 7 32 15
42 8 11 15 37 15 58 0 21 5 38 10 38 6 0 10 95 10 265 0 170 -4 265 -10 265
-6 0 -10 26 -10 59 0 40 -5 63 -15 71 -9 7 -15 29 -15 51 0 28 -4 39 -15 39
-11 0 -15 11 -15 40 0 22 -4 40 -10 40 -5 0 -10 8 -10 19 0 10 -7 24 -15 31
-8 7 -15 21 -15 32 0 10 -7 21 -15 24 -8 4 -15 12 -15 20 0 8 -6 14 -13 14 -8
0 -20 11 -27 25 -7 14 -19 25 -27 25 -7 0 -13 7 -13 15 0 8 -6 15 -14 15 -8 0
-16 7 -20 15 -3 8 -15 15 -26 15 -11 0 -20 5 -20 10 0 6 -13 10 -29 10 -16 0
-31 6 -35 15 -3 10 -19 15 -46 15 -24 0 -48 7 -56 15 -12 12 -41 15 -137 14
-67 -1 -130 -3 -139 -6z m272 -253 c0 -6 8 -14 17 -17 33 -13 83 -66 106 -112
12 -25 25 -47 30 -49 10 -5 9 -300 -2 -307 -5 -3 -12 -19 -16 -35 -10 -43
-104 -140 -137 -140 -14 0 -31 -7 -38 -15 -9 -11 -33 -15 -87 -15 -56 0 -75 4
-79 15 -4 8 -17 15 -30 15 -13 0 -24 3 -24 8 0 4 -14 16 -30 27 -16 11 -30 24
-30 29 0 5 -11 19 -25 32 -14 13 -25 32 -25 44 0 11 -7 20 -15 20 -11 0 -15
11 -15 40 0 22 -4 40 -10 40 -6 0 -10 35 -10 84 0 47 5 88 10 91 6 3 10 21 10
40 0 20 6 35 15 39 8 3 15 15 15 26 0 11 3 20 8 20 4 0 16 16 26 35 11 19 25
35 32 35 6 0 14 7 18 15 3 8 14 15 25 15 10 0 21 7 25 15 4 12 27 15 121 15
72 0 115 -4 115 -10z"/>


<path  id="9_ic" d="M2265 16240 c-3 -5 -15 -10 -25 -10 -31 0 -140 -113 -140 -144 0 -14
-4 -26 -10 -26 -6 0 -10 -55 -10 -145 0 -90 4 -145 10 -145 6 0 10 -11 10 -25
0 -29 109 -145 138 -145 9 0 26 -7 36 -15 17 -13 155 -15 1013 -15 874 0 994
2 999 15 4 8 16 15 28 15 33 0 136 81 136 107 0 6 7 16 15 23 8 7 15 23 15 36
0 13 5 24 10 24 13 0 14 247 1 255 -5 3 -12 19 -16 35 -4 17 -11 30 -16 30 -5
0 -9 5 -9 10 0 6 -9 19 -20 30 -11 11 -24 20 -30 20 -5 0 -10 6 -10 13 0 17
-52 47 -83 47 -14 0 -29 5 -32 10 -4 7 -350 10 -1005 10 -655 0 -1001 -3
-1005 -10z"/>


<path d="M27466 16241 c-3 -4 -19 -11 -36 -15 -17 -3 -47 -21 -67 -41 -20 -19
-40 -35 -45 -35 -4 0 -8 -6 -8 -14 0 -8 -7 -16 -15 -20 -8 -3 -15 -17 -15 -31
0 -14 -4 -25 -10 -25 -6 0 -10 -57 -10 -150 0 -93 4 -150 10 -150 6 0 10 -9
10 -20 0 -11 7 -23 15 -26 8 -4 15 -12 15 -20 0 -8 7 -14 15 -14 8 0 15 -6 15
-12 1 -19 75 -68 103 -68 14 0 27 -7 31 -15 5 -13 125 -15 1000 -15 871 0 996
2 1010 15 8 8 31 15 50 15 20 0 36 3 36 8 0 4 13 16 29 26 15 11 43 42 62 69
34 50 34 50 37 186 5 180 -3 208 -80 283 -49 48 -65 58 -94 58 -19 0 -34 5
-34 10 0 13 -2016 14 -2024 1z"/>


<path d="M7250 11694 c-99 -36 -193 -125 -243 -232 -32 -66 -32 -69 -32 -222
0 -147 1 -158 26 -210 15 -30 37 -66 49 -78 l22 -24 -35 -36 c-57 -60 -115
-160 -143 -246 -47 -145 -35 -366 27 -488 90 -179 243 -269 459 -270 185 0
314 63 407 200 87 128 126 357 89 517 -24 102 -81 210 -146 277 l-55 57 23 29
c44 56 65 138 70 267 3 104 1 129 -17 183 -39 116 -115 208 -213 258 -45 23
-68 28 -148 31 -69 2 -107 -1 -140 -13z m200 -219 c107 -55 145 -218 79 -346
-51 -100 -184 -128 -266 -55 -101 87 -105 252 -10 353 64 67 127 83 197 48z
m25 -684 c51 -23 130 -108 156 -167 30 -66 39 -142 28 -220 -26 -183 -135
-294 -289 -294 -120 0 -215 68 -262 189 -30 78 -29 213 1 293 27 70 106 160
170 193 57 30 139 33 196 6z"/>


<path d="M24753 11322 c-53 -110 -174 -321 -419 -730 l-194 -323 0 -99 0 -100
360 0 360 0 0 -195 0 -195 100 0 100 0 0 195 0 195 100 0 100 0 0 95 0 95
-100 0 -100 0 0 575 0 575 -132 0 -133 0 -42 -88z m94 -1059 c-2 -2 -112 -2
-244 -1 l-240 3 241 407 241 407 3 -406 c1 -223 1 -408 -1 -410z"/>


<path id="8_ic" d="M5650 10415 c-7 -8 -19 -15 -27 -15 -20 0 -133 -60 -133 -71 0 -5 -6
-9 -14 -9 -15 0 -77 -30 -86 -41 -3 -4 -15 -9 -27 -13 -13 -4 -23 -12 -23 -17
0 -5 -7 -9 -15 -9 -9 0 -18 -7 -21 -15 -4 -8 -14 -15 -23 -16 -9 0 -29 -9 -46
-20 -16 -10 -42 -24 -57 -30 -16 -6 -28 -15 -28 -20 0 -5 -7 -9 -15 -9 -8 0
-15 -4 -15 -10 0 -5 -8 -10 -18 -10 -10 0 -23 -5 -29 -11 -14 -14 -52 -36 -75
-45 -10 -3 -18 -10 -18 -14 0 -4 -11 -11 -25 -14 -14 -4 -25 -11 -25 -16 0 -6
-9 -10 -20 -10 -10 0 -23 -6 -27 -12 -9 -15 -31 -29 -88 -58 -57 -29 -79 -43
-88 -57 -4 -7 -17 -13 -27 -13 -11 0 -20 -4 -20 -9 0 -5 -11 -12 -25 -15 -14
-4 -25 -11 -25 -16 0 -6 -7 -10 -15 -10 -8 0 -15 -7 -15 -15 0 -8 -9 -15 -19
-15 -22 0 -81 -31 -81 -42 0 -5 -7 -8 -15 -8 -9 0 -18 -7 -21 -15 -4 -8 -13
-15 -22 -15 -8 0 -29 -10 -46 -23 -17 -13 -39 -26 -48 -30 -10 -3 -18 -11 -18
-17 0 -5 -9 -10 -20 -10 -10 0 -23 -6 -27 -13 -4 -7 -24 -21 -44 -30 -19 -9
-47 -28 -63 -42 -15 -14 -32 -25 -37 -25 -6 0 -25 -11 -43 -25 -18 -14 -37
-25 -42 -25 -5 0 -22 -14 -38 -30 -16 -17 -35 -30 -42 -30 -8 0 -16 -11 -20
-25 -3 -14 -11 -25 -18 -25 -6 0 -19 -19 -28 -43 -27 -64 -25 -223 3 -285 24
-53 131 -162 159 -162 10 0 20 -7 24 -15 3 -10 19 -15 45 -15 22 0 43 -4 46
-10 3 -5 21 -10 40 -10 19 0 37 5 40 10 3 6 19 10 34 10 16 0 34 7 41 15 7 8
20 15 30 15 10 0 20 7 24 15 3 8 15 15 26 15 11 0 20 5 20 10 0 6 9 10 20 10
11 0 23 7 26 15 4 8 17 15 30 15 13 0 24 4 24 10 0 5 20 19 45 30 25 11 45 25
45 30 0 6 9 10 20 10 11 0 23 7 26 15 4 8 12 15 20 15 8 0 32 11 54 25 22 14
44 25 50 25 6 0 13 7 16 15 4 8 12 15 20 15 8 0 32 11 54 25 22 14 44 25 50
25 5 0 10 7 10 15 0 9 9 15 25 15 14 0 28 7 31 15 4 8 13 15 22 15 8 0 30 11
48 25 18 14 40 25 48 25 9 0 16 7 16 15 0 9 9 15 25 15 14 0 25 4 25 8 0 5 20
19 45 31 25 12 45 27 45 32 0 5 7 9 15 9 9 0 33 11 55 25 22 14 44 25 50 25 5
0 10 7 10 15 0 9 9 15 24 15 13 0 26 7 30 15 3 8 14 15 24 15 11 0 31 11 46
25 15 14 34 25 42 25 8 0 17 7 20 15 4 8 12 15 18 15 22 0 66 25 66 38 0 6 11
12 25 12 14 0 25 4 25 9 0 5 20 20 45 32 25 12 45 26 45 31 0 4 9 8 20 8 10 0
23 6 27 13 4 7 25 21 46 32 20 11 37 23 37 27 0 5 6 8 13 8 19 0 92 70 121
117 25 41 26 49 26 183 0 87 -4 140 -10 140 -5 0 -10 9 -10 20 0 11 -7 23 -15
26 -8 4 -15 12 -15 20 0 8 -7 14 -15 14 -8 0 -15 5 -15 11 0 21 -58 69 -84 69
-16 0 -26 6 -26 15 0 12 -20 15 -119 15 -93 0 -121 -3 -131 -15z"/>


<path d="M25970 10390 c0 -5 -11 -10 -25 -10 -14 0 -28 -7 -31 -15 -4 -8 -15
-15 -25 -15 -25 0 -139 -113 -139 -138 0 -11 -7 -22 -15 -26 -10 -4 -15 -20
-15 -51 0 -28 -6 -52 -15 -62 -11 -11 -14 -25 -9 -51 4 -21 11 -38 15 -40 5
-2 9 -23 9 -47 0 -29 5 -45 15 -49 8 -3 15 -14 15 -23 0 -20 14 -34 73 -73 20
-14 37 -28 37 -32 0 -5 9 -8 20 -8 11 0 23 -7 26 -15 4 -8 12 -15 20 -15 8 0
14 -4 14 -10 0 -5 11 -12 25 -16 14 -3 25 -10 25 -15 0 -5 7 -9 15 -9 8 0 15
-4 15 -10 0 -5 11 -12 24 -16 14 -3 27 -12 30 -20 3 -8 15 -14 26 -14 11 0 20
-4 20 -10 0 -5 6 -10 14 -10 7 0 19 -7 26 -15 7 -8 20 -15 30 -15 10 0 20 -7
24 -15 3 -8 15 -15 26 -15 11 0 20 -4 20 -9 0 -5 8 -11 18 -15 9 -3 31 -15 47
-26 17 -11 40 -24 52 -29 11 -5 24 -15 28 -20 3 -6 15 -11 26 -11 10 0 19 -4
19 -10 0 -5 7 -10 15 -10 8 0 15 -4 15 -9 0 -5 10 -13 23 -17 12 -4 24 -9 27
-13 3 -3 25 -16 50 -29 25 -13 59 -32 75 -43 17 -10 38 -22 48 -25 9 -4 17
-10 17 -15 0 -5 11 -9 24 -9 13 0 26 -7 30 -15 3 -8 17 -15 31 -15 16 0 25 -6
25 -15 0 -8 6 -15 13 -15 7 0 29 -11 49 -25 20 -14 43 -25 51 -25 8 0 17 -7
21 -15 3 -8 12 -15 20 -15 14 0 77 -30 86 -41 3 -4 15 -9 28 -13 12 -4 22 -12
22 -17 0 -5 5 -9 10 -9 6 0 28 -11 50 -25 22 -14 49 -25 60 -25 11 0 20 -7 20
-15 0 -9 9 -15 24 -15 13 0 26 -7 30 -15 3 -8 14 -15 25 -15 11 0 23 -4 26
-10 3 -5 15 -10 26 -10 11 0 22 -7 25 -15 4 -8 16 -15 29 -15 13 0 25 -6 28
-14 8 -21 157 -47 157 -27 0 6 13 11 29 11 16 0 36 7 45 15 8 8 21 15 28 15 7
0 25 11 40 25 15 14 32 25 38 25 5 0 10 7 10 15 0 8 7 15 15 15 8 0 15 7 15
15 0 8 4 15 10 15 5 0 12 11 16 25 3 14 10 25 15 25 4 0 11 17 14 38 3 20 10
45 16 54 11 22 12 105 0 112 -4 3 -11 23 -14 45 -3 22 -12 48 -21 56 -9 9 -16
22 -16 28 0 16 -55 77 -69 77 -6 0 -11 7 -11 15 0 8 -8 15 -18 15 -9 0 -29 11
-44 25 -15 14 -36 25 -48 25 -11 0 -20 7 -20 15 0 9 -9 15 -25 15 -14 0 -25 4
-25 9 0 11 -56 41 -77 41 -7 0 -13 7 -13 15 0 9 -9 15 -25 15 -16 0 -25 6 -25
15 0 8 -7 15 -16 15 -8 0 -30 11 -48 25 -18 14 -40 25 -50 25 -9 0 -19 7 -22
15 -4 8 -17 15 -30 15 -13 0 -24 4 -24 10 0 5 -17 17 -37 26 -21 10 -42 24
-46 31 -4 7 -16 13 -26 13 -11 0 -21 7 -25 15 -3 8 -17 15 -31 15 -14 0 -25 4
-25 9 0 5 -8 11 -17 15 -19 6 -54 27 -63 37 -9 10 -73 39 -87 39 -7 0 -16 6
-19 14 -3 8 -13 17 -22 20 -17 5 -52 26 -62 36 -11 11 -72 40 -85 40 -7 0 -15
7 -19 15 -3 8 -14 15 -25 15 -11 0 -24 6 -28 13 -10 15 -49 37 -67 37 -8 0
-16 7 -20 15 -3 8 -14 15 -25 15 -10 0 -21 7 -25 15 -3 8 -17 15 -31 15 -14 0
-25 5 -25 10 0 6 -9 10 -20 10 -11 0 -20 4 -20 9 0 10 -9 15 -97 61 -26 14
-49 28 -51 33 -2 4 -15 7 -28 7 -15 0 -24 6 -24 15 0 9 -9 15 -22 15 -13 0
-32 7 -42 15 -11 8 -32 15 -48 15 -15 0 -28 5 -28 10 0 6 -27 10 -60 10 -33 0
-60 -4 -60 -10z"/>



<path d="M21076 8128 c-3 -73 -7 -252 -9 -398 l-2 -265 225 -5 c187 -4 232 -8
265 -23 56 -25 110 -80 137 -141 21 -46 23 -66 23 -196 -1 -206 -26 -278 -126
-357 -98 -77 -260 -100 -494 -69 -65 9 -122 13 -126 8 -9 -10 -41 -183 -35
-189 16 -16 235 -34 376 -30 133 4 166 8 236 30 255 84 367 258 381 597 10
250 -57 409 -215 503 -101 61 -150 72 -311 72 l-144 0 7 74 c3 41 6 134 6 208
l0 133 295 0 295 0 0 90 0 90 -389 0 -389 0 -6 -132z"/>
<path d="M10010 7970 l0 -100 405 0 405 0 -390 -780 c-214 -429 -390 -782
-390 -785 0 -3 52 -5 115 -5 l115 0 400 800 400 800 0 85 0 85 -530 0 -530 0
0 -100z"/>


<path d="M16130 6940 c0 -6 -39 -10 -98 -10 -71 0 -104 -4 -118 -15 -10 -8
-29 -15 -40 -15 -12 0 -27 -7 -34 -15 -7 -8 -20 -15 -30 -15 -10 0 -20 -7 -24
-15 -3 -8 -12 -15 -21 -15 -22 0 -156 -136 -198 -202 -31 -49 -48 -84 -88
-186 -5 -13 -9 -38 -9 -57 0 -18 -6 -35 -12 -37 -38 -13 -38 -622 0 -660 6 -6
12 -29 12 -49 0 -21 5 -41 10 -44 6 -3 10 -13 10 -21 0 -22 37 -101 75 -159
40 -61 151 -175 171 -175 7 0 14 -7 14 -15 0 -9 9 -15 24 -15 13 0 26 -7 30
-15 3 -9 18 -15 40 -15 19 0 38 -4 41 -10 4 -6 68 -10 160 -10 92 0 156 4 160
10 3 6 21 10 39 10 19 0 39 7 46 15 7 8 20 15 30 15 10 0 23 7 30 15 7 8 17
15 22 15 17 0 178 172 178 190 0 10 7 20 15 24 8 3 15 16 15 28 0 13 7 32 15
42 8 11 15 41 15 67 0 26 5 51 10 54 6 3 10 48 10 100 0 52 -4 97 -10 100 -5
3 -10 30 -10 59 0 35 -5 58 -15 66 -8 7 -15 28 -15 46 0 24 -5 34 -15 34 -9 0
-15 9 -15 21 0 25 -80 138 -97 139 -7 0 -13 4 -13 10 0 5 -11 12 -25 16 -14 3
-25 12 -25 20 0 8 -9 14 -21 14 -11 0 -27 7 -35 15 -9 8 -26 15 -39 15 -13 0
-27 5 -30 10 -4 6 -80 10 -196 10 -119 0 -189 -4 -189 -10 0 -5 -11 -10 -24
-10 -13 0 -29 -7 -36 -15 -7 -8 -18 -15 -24 -15 -7 0 -23 -13 -36 -30 -14 -16
-28 -29 -32 -30 -12 0 -10 78 2 85 6 3 10 22 10 41 0 22 6 37 15 40 9 4 15 19
15 39 0 20 6 35 15 39 8 3 15 13 15 22 0 22 59 102 82 109 10 4 18 11 18 16 0
5 7 9 15 9 8 0 15 7 15 15 0 9 9 15 24 15 14 0 28 5 31 10 3 6 23 10 43 10 20
1 48 7 62 15 29 17 117 20 122 4 2 -6 32 -13 66 -16 34 -3 65 -10 68 -14 3 -5
27 -9 54 -9 33 0 50 -5 54 -15 8 -21 17 -19 49 10 25 24 27 31 27 110 0 75 -3
86 -26 114 -19 22 -35 31 -57 31 -18 0 -41 7 -51 15 -14 11 -46 15 -112 15
-51 0 -96 4 -99 10 -3 6 -17 10 -31 10 -13 0 -24 -4 -24 -10z m0 -838 c0 -5
17 -16 38 -25 39 -17 112 -79 112 -95 0 -5 11 -30 25 -56 22 -42 25 -59 25
-154 0 -100 -17 -182 -43 -208 -4 -4 -7 -13 -7 -20 0 -25 -110 -122 -146 -128
-18 -4 -34 -11 -34 -16 0 -16 -86 -11 -122 7 -58 29 -68 33 -77 33 -19 0 -101
90 -101 110 0 11 -7 23 -15 26 -10 4 -15 20 -15 49 0 29 -5 45 -15 49 -12 4
-15 23 -15 85 0 61 3 80 15 85 10 3 15 19 15 46 0 22 4 40 10 40 5 0 12 11 16
25 3 14 10 25 15 25 5 0 9 11 9 25 0 15 6 25 14 25 8 0 16 4 18 9 2 5 28 22
58 39 48 26 66 30 138 31 45 1 82 -3 82 -7z"/>
<path d="M21660 6155 c-7 -8 -23 -15 -36 -15 -13 0 -24 -4 -24 -10 0 -5 -10
-10 -21 -10 -28 0 -149 -123 -149 -150 0 -11 -4 -20 -10 -20 -6 0 -10 -46 -10
-119 0 -69 4 -122 10 -126 6 -3 10 -15 10 -26 0 -11 7 -22 15 -25 8 -4 15 -17
15 -30 0 -15 6 -24 15 -24 8 0 15 -9 15 -19 0 -21 30 -84 43 -89 4 -2 7 -12 7
-23 0 -11 6 -22 14 -25 8 -3 17 -16 20 -30 4 -13 11 -24 16 -24 6 0 10 -9 10
-20 0 -11 5 -20 10 -20 6 0 10 -9 10 -20 0 -11 7 -23 15 -26 8 -4 15 -17 15
-30 0 -15 6 -24 15 -24 9 0 15 -9 15 -25 0 -14 3 -25 8 -25 4 0 16 -20 27 -45
11 -25 25 -45 32 -45 7 0 13 -11 13 -25 0 -14 5 -25 10 -25 6 0 10 -8 10 -19
0 -10 7 -24 15 -31 8 -7 15 -21 15 -32 0 -10 7 -21 15 -24 8 -4 15 -15 15 -25
0 -11 7 -22 15 -25 8 -4 15 -12 15 -20 0 -8 5 -14 10 -14 6 0 10 -11 10 -25 0
-14 7 -28 15 -31 8 -4 15 -15 15 -25 0 -11 7 -22 15 -25 8 -4 15 -17 15 -30 0
-13 3 -24 8 -24 7 0 25 -30 38 -62 3 -10 13 -18 20 -18 9 0 14 -11 14 -30 0
-16 4 -30 9 -30 5 0 12 -11 15 -25 4 -14 11 -25 16 -25 6 0 10 -9 10 -20 0
-10 6 -23 13 -27 7 -4 21 -25 30 -45 10 -20 22 -40 27 -43 6 -3 10 -15 10 -26
0 -11 7 -22 15 -25 8 -4 15 -14 15 -25 0 -10 6 -22 13 -26 15 -10 37 -49 37
-67 0 -8 7 -16 15 -20 8 -3 15 -15 15 -26 0 -11 7 -23 15 -26 8 -4 15 -14 15
-24 0 -9 11 -29 25 -44 14 -15 25 -34 25 -42 0 -8 7 -17 15 -20 8 -4 15 -10
15 -16 0 -18 64 -68 87 -68 14 0 23 -6 23 -15 0 -11 11 -15 39 -15 25 0 41 -5
45 -15 4 -11 20 -15 54 -15 32 0 54 5 62 15 7 8 28 15 47 15 21 0 36 6 39 15
4 8 14 15 24 15 9 0 29 11 44 25 15 14 31 25 37 25 5 0 9 7 9 15 0 8 5 15 10
15 6 0 10 6 10 14 0 8 7 16 15 20 8 3 15 13 15 21 0 9 7 23 15 31 12 12 15 41
15 125 0 88 -3 111 -15 115 -8 4 -15 16 -15 29 0 13 -7 25 -15 29 -8 3 -15 14
-15 25 0 11 -4 23 -10 26 -5 3 -10 15 -10 26 0 11 -7 22 -15 25 -8 4 -15 17
-15 30 0 15 -6 24 -15 24 -8 0 -15 7 -15 17 0 22 -32 93 -42 93 -4 0 -8 9 -8
20 0 10 -6 23 -13 27 -8 4 -22 27 -32 51 -11 23 -22 42 -27 42 -4 0 -8 11 -8
25 0 16 -6 25 -15 25 -9 0 -15 9 -15 25 0 14 -4 25 -10 25 -5 0 -10 6 -10 14
0 8 -6 21 -13 28 -6 7 -21 32 -32 55 -11 24 -26 43 -32 43 -7 0 -13 11 -13 25
0 14 -4 25 -10 25 -5 0 -10 11 -10 24 0 13 -7 26 -15 30 -8 3 -15 15 -15 26 0
11 -7 23 -15 26 -8 4 -15 13 -15 22 0 8 -11 30 -25 48 -14 18 -25 40 -25 49 0
8 -7 18 -15 21 -8 4 -15 17 -15 30 0 13 -4 24 -10 24 -5 0 -12 11 -16 25 -3
14 -10 25 -15 25 -5 0 -9 6 -9 14 0 8 -7 16 -15 20 -8 3 -15 15 -15 26 0 11
-7 20 -15 20 -8 0 -15 8 -15 18 0 18 -27 82 -39 92 -10 9 -31 44 -37 63 -4 9
-10 17 -15 17 -5 0 -9 11 -9 25 0 14 -4 25 -9 25 -10 0 -34 38 -47 73 -3 9
-10 17 -15 17 -5 0 -9 6 -9 14 0 8 -6 21 -13 28 -7 7 -16 20 -20 28 -11 24
-30 52 -54 79 -13 14 -23 32 -23 39 0 7 -7 15 -15 18 -8 4 -15 12 -15 20 0 8
-7 14 -15 14 -8 0 -15 5 -15 11 0 17 -27 39 -50 39 -11 0 -23 7 -26 15 -5 12
-26 15 -99 15 -70 0 -96 -4 -105 -15z"/>


<path d="M10010 6105 c-7 -8 -24 -15 -38 -15 -32 0 -105 -60 -139 -114 -14
-22 -29 -43 -32 -46 -10 -8 -131 -190 -131 -197 0 -3 -11 -21 -25 -39 -14 -18
-25 -40 -25 -48 0 -9 -4 -16 -9 -16 -8 0 -63 -82 -124 -185 -7 -11 -21 -33
-32 -50 -27 -39 -36 -55 -62 -103 -13 -22 -27 -43 -33 -47 -5 -3 -10 -12 -10
-20 0 -8 -10 -25 -22 -39 -13 -13 -32 -41 -43 -63 -11 -21 -32 -56 -47 -77
-16 -21 -28 -45 -28 -53 0 -7 -4 -13 -10 -13 -5 0 -10 -7 -10 -15 0 -8 -4 -15
-9 -15 -5 0 -13 -10 -17 -22 -3 -12 -13 -28 -20 -36 -8 -7 -14 -20 -14 -28 0
-8 -4 -14 -10 -14 -5 0 -10 -7 -10 -15 0 -8 -4 -15 -9 -15 -5 0 -13 -10 -17
-22 -4 -13 -10 -25 -13 -28 -14 -10 -71 -111 -71 -124 0 -8 -7 -16 -15 -20 -8
-3 -15 -15 -15 -26 0 -11 -5 -20 -10 -20 -6 0 -18 -17 -28 -37 -9 -21 -23 -42
-29 -46 -7 -4 -13 -16 -13 -26 0 -10 -7 -24 -15 -31 -8 -7 -15 -21 -15 -30 0
-10 -3 -20 -7 -22 -5 -1 -16 -18 -25 -36 -14 -26 -18 -58 -18 -147 0 -62 3
-115 8 -117 4 -1 16 -20 26 -40 11 -21 25 -38 33 -38 7 0 13 -7 13 -15 0 -8 4
-15 9 -15 6 0 22 -11 37 -25 15 -14 39 -25 54 -25 16 0 30 -7 34 -15 4 -12 29
-15 136 -15 107 0 132 3 136 15 4 8 11 15 16 15 21 0 68 42 68 61 0 10 5 19
11 19 16 0 36 23 60 69 11 22 25 41 30 41 5 0 9 7 9 15 0 8 3 15 8 15 4 0 16
17 27 38 11 20 25 41 32 45 7 4 13 17 13 27 0 11 5 20 10 20 6 0 18 18 27 40
10 22 23 40 30 40 7 0 13 11 13 25 0 16 6 25 15 25 8 0 15 7 15 15 0 8 5 15
10 15 6 0 10 6 10 14 0 8 6 21 13 28 7 7 16 20 20 28 4 8 16 29 27 45 10 17
26 44 35 62 9 17 23 34 31 37 8 3 14 17 14 31 0 16 6 25 15 25 8 0 15 7 15 15
0 8 5 15 10 15 6 0 10 11 10 25 0 14 6 25 13 25 6 0 18 13 25 29 7 16 22 39
32 51 11 13 20 29 20 37 0 7 5 13 10 13 6 0 10 9 10 19 0 10 7 21 15 25 8 3
15 14 15 25 0 10 7 21 15 25 8 3 15 15 15 26 0 11 5 20 10 20 6 0 10 6 10 14
0 8 7 16 15 20 8 3 15 15 15 26 0 11 4 20 10 20 5 0 17 17 26 38 10 20 24 41
31 45 7 4 13 17 13 27 0 11 4 20 9 20 11 0 41 56 41 77 0 7 7 13 15 13 9 0 15
9 15 25 0 16 6 25 15 25 8 0 15 7 15 16 0 8 11 30 25 48 14 18 25 40 25 48 0
9 7 18 15 22 8 3 15 16 15 30 0 13 7 26 15 30 8 3 15 15 15 26 0 11 5 20 10
20 6 0 10 48 10 125 0 77 -4 125 -10 125 -5 0 -10 8 -10 18 -1 20 -33 62 -49
62 -6 0 -11 5 -11 12 0 19 -62 68 -87 68 -14 0 -23 6 -23 15 0 11 -11 15 -39
15 -25 0 -41 5 -45 15 -4 11 -22 15 -69 15 -45 0 -68 -5 -77 -15z"/>


<path d="M15750 4541 c0 -5 -12 -12 -26 -15 -37 -10 -102 -81 -141 -153 l-33
-61 0 -978 c0 -928 1 -982 19 -1039 17 -56 81 -144 105 -145 5 0 15 -8 22 -17
11 -16 33 -18 194 -18 161 0 183 2 194 18 7 9 16 17 20 17 4 0 27 20 52 44 35
36 44 51 44 79 0 22 6 37 15 41 13 5 15 126 15 1009 0 881 -2 1006 -15 1017
-8 7 -15 18 -15 25 0 46 -103 153 -155 162 -19 3 -35 10 -35 14 0 5 -58 9
-130 9 -71 0 -130 -4 -130 -9z"/>
</g>
</svg>